<svg xmlns="http://www.w3.org/2000/svg" width="24" height="24" viewBox="0 0 24 24">
  <path d="M12.7 2c-3.9 0.6-6.9 3.5-7.9 7.7c-0.2 1-0.3 3-0.1 4c0.5 2.7 2.3 5 4.7 6c1 0.4 1.6 0.6 2.9 0.6c0.9 0 1.4 0 2.1-0.1c2.1-0.3 4.1-1.3 5.1-2.4l0.3-0.3l0-1.4c0-0.8-0.1-2.6-0.1-4.1V9.6l-2.2 0.1c-1.2 0-2.9 0.1-3.6 0.1l-1.4 0.1l-0.1 1.8c0 1 0 1.8 0 1.8c0 0 0.7 0.1 1.5 0.1l1.4 0.1v0.2c0 0.5-0.1 0.8-0.4 0.9c-0.5 0.3-1.4 0.4-2 0.3c-2.1-0.4-2.9-3.5-1.5-5.7c0.9-1.4 2.4-2 4.5-1.9c0.6 0 1.3 0.1 1.6 0.2c0.3 0.1 0.7 0.1 0.7 0.1c0.1-0.1 0.4-4.4 0.3-4.6c-0.1-0.2-1-0.5-2-0.7C14.6 2 12.8 1.9 12.7 2z" fill="white"/>
</svg>
